<svg aria-hidden="true" style="position: absolute; width: 0; height: 0; overflow: hidden;" version="1.1" xmlns="http://www.w3.org/2000/svg" xmlns:xlink="http://www.w3.org/1999/xlink">
<defs>
<symbol id="icon-youtube" viewBox="0 0 45 32">
<path d="M41.964 6.404c-0.243-0.902-0.718-1.724-1.377-2.385s-1.481-1.138-2.382-1.383c-3.341-0.917-16.706-0.932-16.706-0.932s-13.363-0.015-16.706 0.862c-0.9 0.256-1.72 0.74-2.38 1.404s-1.138 1.487-1.388 2.389c-0.881 3.341-0.89 10.27-0.89 10.27s-0.009 6.963 0.866 10.27c0.491 1.828 1.931 3.273 3.761 3.765 3.375 0.917 16.704 0.932 16.704 0.932s13.365 0.015 16.706-0.86c0.901-0.244 1.723-0.72 2.384-1.38s1.139-1.48 1.385-2.381c0.883-3.339 0.89-10.265 0.89-10.265s0.043-6.965-0.868-10.306zM17.224 23.048l0.011-12.8 11.108 6.411-11.119 6.389z"></path>
</symbol>
<symbol id="icon-x" viewBox="0 0 36 32">
<path d="M26.831 0.077h5.195l-11.351 12.757 13.353 17.36h-10.455l-8.189-10.529-9.37 10.529h-5.199l12.141-13.645-12.81-16.472h10.721l7.402 9.624 8.561-9.624zM25.007 27.137h2.879l-18.583-24.162h-3.089l18.794 24.162z"></path>
</symbol>
<symbol id="icon-facebook" viewBox="0 0 32 32">
<path d="M30.594 15.394c0-8.467-6.822-15.331-15.238-15.331s-15.238 6.864-15.238 15.331c0 7.652 5.572 13.995 12.857 15.145v-10.713h-3.869v-4.432h3.869v-3.378c0-3.842 2.275-5.965 5.756-5.965 1.667 0 3.411 0.299 3.411 0.299v3.773h-1.921c-1.893 0-2.483 1.182-2.483 2.394v2.876h4.226l-0.675 4.432h-3.551v10.713c7.285-1.15 12.857-7.493 12.857-15.145z"></path>
</symbol>
<symbol id="icon-phone" viewBox="0 0 32 32">
<path d="M23.655 17.747c-0.148-0.149-0.325-0.267-0.519-0.347s-0.402-0.122-0.612-0.122c-0.21 0-0.418 0.041-0.612 0.122s-0.37 0.199-0.519 0.347l-2.55 2.55c-1.182-0.352-3.389-1.152-4.787-2.55s-2.198-3.605-2.55-4.787l2.55-2.55c0.149-0.148 0.267-0.325 0.347-0.519s0.122-0.402 0.122-0.612c0-0.21-0.041-0.418-0.122-0.612s-0.198-0.37-0.347-0.519l-6.4-6.4c-0.148-0.149-0.325-0.267-0.519-0.347s-0.402-0.122-0.612-0.122c-0.21 0-0.418 0.041-0.612 0.122s-0.37 0.198-0.519 0.347l-4.339 4.339c-0.608 0.608-0.95 1.443-0.938 2.296 0.037 2.278 0.64 10.192 6.877 16.429s14.15 6.838 16.43 6.877h0.045c0.845 0 1.643-0.333 2.248-0.938l4.339-4.339c0.149-0.148 0.267-0.325 0.347-0.519s0.122-0.402 0.122-0.612c0-0.21-0.041-0.418-0.122-0.612s-0.199-0.37-0.347-0.519l-6.4-6.402zM23.452 28.486c-1.997-0.034-8.829-0.57-14.197-5.939-5.386-5.386-5.907-12.242-5.939-14.198l3.208-3.208 4.138 4.138-2.069 2.069c-0.188 0.188-0.326 0.42-0.402 0.675s-0.087 0.524-0.033 0.785c0.038 0.184 0.978 4.547 3.634 7.203s7.019 3.595 7.203 3.634c0.26 0.056 0.53 0.046 0.785-0.030s0.487-0.214 0.674-0.403l2.070-2.069 4.138 4.138-3.21 3.208z"></path>
</symbol>
<symbol id="icon-email" viewBox="0 0 40 32">
<path d="M34.028 1.504h-30.118c-2.076 0-3.765 1.688-3.765 3.765v22.588c0 2.076 1.688 3.765 3.765 3.765h30.118c2.076 0 3.765-1.688 3.765-3.765v-22.588c0-2.076-1.688-3.765-3.765-3.765zM34.028 5.268v0.962l-15.059 11.714-15.059-11.712v-0.964h30.118zM3.911 27.857v-16.858l13.903 10.814c0.33 0.259 0.737 0.4 1.156 0.4s0.826-0.141 1.156-0.4l13.903-10.814 0.004 16.858h-30.121z"></path>
</symbol>
<symbol id="icon-arrow" viewBox="0 0 58 32">
<path stroke-linejoin="miter" stroke-linecap="butt" stroke-miterlimit="4" stroke-width="3.2" d="M6.277 29.853c-0.312 0.312-0.819 0.312-1.131 0l-1.131-1.131c-0.312-0.312-0.312-0.819 0-1.131l24.469-24.469c0.312-0.312 0.819-0.312 1.131 0l24.469 24.469c0.312 0.312 0.312 0.819 0 1.131l-1.131 1.131c-0.313 0.312-0.819 0.312-1.132 0l-22.772-22.772-22.772 22.772z"></path>
</symbol>
<symbol id="icon-empty-star" viewBox="0 0 34 32">
<path stroke-linejoin="miter" stroke-linecap="butt" stroke-miterlimit="4" stroke-width="1.6" d="M15.374 2.568c0.275-0.654 1.225-0.654 1.5 0l3.245 7.709c0.35 0.83 1.137 1.392 2.033 1.463l8.425 0.667c0.732 0.058 0.994 0.936 0.466 1.384l-6.42 5.433c-0.687 0.582-0.992 1.5-0.78 2.377l1.962 8.122c0.159 0.659-0.579 1.237-1.216 0.853h-0.002l-7.211-4.352c-0.769-0.464-1.737-0.464-2.506 0l-7.213 4.352c-0.637 0.384-1.375-0.194-1.216-0.853l1.962-8.122c0.212-0.877-0.092-1.795-0.78-2.377l-6.42-5.433c-0.529-0.448-0.267-1.326 0.466-1.384l8.425-0.667c0.896-0.071 1.683-0.633 2.033-1.463l3.245-7.709z"></path>
</symbol>
<symbol id="icon-cheese" viewBox="0 0 34 32">
<path d="M21.659 0.125c-0.375-0.056-0.758 0.019-1.083 0.213l-19.692 11.487c-0.078 0.045-0.15 0.1-0.213 0.164l-0.164 0.131c-0.112 0.129-0.205 0.273-0.279 0.427-0.117 0.216-0.173 0.46-0.164 0.706v16.41c0 0.435 0.173 0.853 0.481 1.16s0.725 0.481 1.16 0.481h29.538c0.435 0 0.853-0.173 1.16-0.481s0.481-0.725 0.481-1.16v-16.41c0.006-3.168-1.122-6.234-3.181-8.643s-4.912-3.999-8.043-4.486zM21.659 3.49c1.973 0.404 3.777 1.396 5.175 2.847s2.323 3.29 2.653 5.276h-21.711l13.883-8.123zM29.602 28.023h-26.256v-13.128h26.256v13.128z"></path>
<path d="M7.448 26.382c1.359 0 2.462-1.102 2.462-2.462s-1.102-2.462-2.462-2.462c-1.359 0-2.462 1.102-2.462 2.462s1.102 2.462 2.462 2.462z"></path>
<path d="M15.653 21.459c1.359 0 2.462-1.102 2.462-2.462s-1.102-2.462-2.462-2.462c-1.36 0-2.462 1.102-2.462 2.462s1.102 2.462 2.462 2.462z"></path>
<path d="M24.679 26.382c1.813 0 3.282-1.469 3.282-3.282s-1.469-3.282-3.282-3.282-3.282 1.469-3.282 3.282c0 1.813 1.469 3.282 3.282 3.282z"></path>
</symbol>
<symbol id="icon-basketball" viewBox="0 0 32 32">
<path d="M4.633 26.767c2.958 2.958 6.876 4.586 11.038 4.586s8.081-1.628 11.038-4.586c6.086-6.086 6.086-15.989 0-22.077-2.957-2.957-6.878-4.586-11.038-4.586s-8.081 1.63-11.038 4.588c-6.086 6.085-6.086 15.989 0 22.075zM16.152 3.251c2.607 0.094 5.117 1.011 7.171 2.619l-7.653 7.652-2.279-2.279c1.812-2.309 2.797-5.164 2.761-7.992zM11.159 9.011l-3.141-3.141c1.474-1.156 3.192-1.962 5.023-2.357-0.023 1.929-0.695 3.867-1.883 5.498zM8.936 11.202c-1.59 1.086-3.474 1.662-5.399 1.65 0.406-1.737 1.182-3.365 2.276-4.773l3.123 3.123zM3.2 15.957c0.12 0.003 0.24 0.022 0.361 0.022 2.747 0.009 5.421-0.883 7.613-2.538l2.29 2.288-7.65 7.65c-1.651-2.126-2.568-4.731-2.613-7.422zM22.39 20.242c1.627-1.183 3.559-1.854 5.476-1.883-0.39 1.829-1.189 3.545-2.337 5.022l-3.139-3.139zM23.322 25.588c-1.408 1.1-3.037 1.883-4.775 2.295-0.018-1.933 0.558-3.825 1.65-5.42l3.125 3.125zM15.448 28.22c-2.698-0.043-5.308-0.967-7.432-2.632l7.653-7.652 2.284 2.284c-1.722 2.254-2.59 5.098-2.505 8zM28.13 15.248c-2.821-0.028-5.671 0.952-7.973 2.76l-2.279-2.279 7.65-7.65c1.597 2.058 2.507 4.566 2.602 7.17z"></path>
</symbol>
<symbol id="icon-health" viewBox="0 0 31 32">
<path d="M27.61 5.249l-8.818 5.092v-10.182h-6.244v10.182l-8.818-5.092-3.122 5.409 8.816 5.090-8.816 5.090 3.122 5.409 8.818-5.090v10.182h6.244v-10.182l8.818 5.090 3.122-5.409-8.816-5.090 8.816-5.090-3.122-5.409z"></path>
</symbol>
<symbol id="icon-fork-and-knife" viewBox="0 0 29 32">
<path d="M13.905 12.24h-3.459v-12.108h-3.459v12.108h-3.459v-12.108h-3.459v13.838c0 2.861 2.328 5.189 5.189 5.189h1.73v12.108h3.459v-12.108h1.73c2.861 0 5.189-2.328 5.189-5.189v-13.838h-3.459v12.108zM26.013 0.132h-1.73c-2.005 0-3.459 2.183-3.459 5.189v13.838h3.459v12.108h3.459v-29.405c0-0.459-0.182-0.899-0.507-1.223s-0.764-0.507-1.223-0.507z"></path>
</symbol>
<symbol id="icon-logo" viewBox="0 0 75 32">
<path d="M65.909 16.864c-0.755-0.025-1.509-0.050-2.265-0.025-3.511 0.146-7.486 0.759-9.983 3.455-1.191 1.287-1.838 2.88-1.747 4.63 0.060 0.99 0.325 1.957 0.781 2.841-0.004 0.007-0.008 0.015-0.013 0.022-0.003 0.004-0.005 0.008-0.007 0.012-0.134 0.225-0.417 0.539-0.703 0.855-0.361 0.4-0.726 0.804-0.798 1.039-0.018 0.060-0.005 0.133 0.013 0.191 0.059 0.197 0.264 0.351 0.425 0.471l0.012 0.009c0.353-0.342 0.674-0.714 0.995-1.086l0.026-0.030 0.649-0.781c1.724 0.964 3.417 1.268 5.35 0.739 2.367-0.648 4.198-2.308 5.378-4.395 1.314-2.323 1.918-5.305 2.006-7.944l-0.12-0.004zM62.48 19.192c0.009 0.002 0.018 0.005 0.027 0.007 0.084 0.021 0.16 0.040 0.231 0.096 0.076 0.060 0.136 0.155 0.131 0.252-0.006 0.117-0.049 0.175-0.131 0.257-0.253 0.253-0.56 0.475-0.86 0.693-0.133 0.096-0.264 0.192-0.39 0.289-0.795 0.607-1.578 1.228-2.351 1.863 0.487-0.116 2.122-0.392 2.547-0.249 0.132 0.045 0.175 0.108 0.229 0.23-0.012 0.179-0.067 0.288-0.24 0.363-0.079 0.034-0.665 0.090-1.322 0.154-0.749 0.072-1.591 0.152-1.879 0.22-0.183 0.043-0.327 0.103-0.481 0.209-0.232 0.161-0.443 0.361-0.65 0.56-0.077 0.074-0.154 0.147-0.231 0.218-0.681 0.624-1.35 1.252-2.003 1.905 0.464 0.101 1.147 0.069 1.807 0.037 0.744-0.035 1.461-0.069 1.807 0.090 0.057 0.072 0.073 0.148 0.066 0.239-0.006 0.073-0.049 0.119-0.102 0.167-0.285 0.256-3.102 0.174-3.54 0.125-0.017-0.003-0.036-0.006-0.055-0.009-0.097-0.016-0.205-0.035-0.297-0.016-0.707 0.144-1.677 1.224-2.098 1.765l0.026-0.059c0.196-0.452 0.393-0.906 0.667-1.319 0.463-0.7 1.776-1.996 2.419-2.609 0.102-0.097 0.222-0.196 0.345-0.298 0.272-0.225 0.56-0.465 0.721-0.732 0.162-0.268 0.258-0.83 0.358-1.419 0.127-0.74 0.261-1.524 0.542-1.827 0.082-0.088 0.106-0.093 0.219-0.104 0.111 0.048 0.181 0.094 0.244 0.2 0.046 0.077 0.052 0.154 0.040 0.24-0.029 0.209-0.103 0.428-0.176 0.643-0.039 0.116-0.078 0.231-0.109 0.342-0.105 0.377-0.185 0.761-0.265 1.144-0.009 0.043-0.018 0.087-0.027 0.13 0.372-0.353 0.789-0.666 1.203-0.977 0.134-0.101 0.268-0.201 0.399-0.303 0.199-0.154 0.4-0.307 0.6-0.46 0.873-0.668 1.751-1.34 2.58-2.054z"></path>
<path d="M10.964 0.321c-0.014 0.001-0.027 0.004-0.041 0.007-1.499 0.177-2.855 0.853-3.8 2.030-1.157 1.442-1.473 3.284-1.253 5.079 0.191 1.555 0.912 3.023 2.185 3.989 1.271 0.965 2.75 1.238 4.32 1.118 1.527-0.207 2.905-0.888 3.853-2.11 1.101-1.417 1.403-3.289 1.163-5.027-0.218-1.578-1.015-3.049-2.317-4.011-1.18-0.872-2.649-1.226-4.111-1.073zM11.454 2.334c0.82-0.010 1.563 0.142 2.208 0.668 0.789 0.644 1.147 1.66 1.238 2.639 0.117 1.26-0.023 2.749-0.882 3.757-0.592 0.694-1.35 0.971-2.244 1.049-0.017 0.002-0.033 0.004-0.050 0.005-0.758 0.038-1.548-0.183-2.134-0.664-0.806-0.661-1.146-1.666-1.232-2.668-0.107-1.254-0.008-2.783 0.862-3.786 0.589-0.679 1.353-0.936 2.234-0.999z"></path>
<path d="M29.199 3.483c-0.005 0.001-0.010 0.001-0.016 0.002-1.024 0.097-1.898 0.498-2.565 1.286-0.834 0.985-1.118 2.366-0.994 3.62 0.104 1.056 0.544 2.098 1.397 2.776 0.86 0.684 1.962 0.845 3.035 0.717 0.846-0.101 1.404-0.473 1.989-1.060 0.001 0.057 0.002 0.115 0.003 0.174 0.016 0.796 0.034 1.759-0.565 2.351-0.403 0.398-0.98 0.482-1.525 0.471-0.59-0.012-1.183-0.146-1.603-0.587-0.119-0.125-0.197-0.28-0.273-0.433-0.013-0.027-0.027-0.054-0.041-0.080-0.214-0.001-0.436-0.008-0.661-0.015-0.546-0.018-1.11-0.036-1.619 0.038-0.044 0.116-0.011 0.24 0.020 0.359 0.006 0.024 0.012 0.047 0.018 0.070 0.304 0.898 0.953 1.59 1.807 2.017 1.214 0.607 2.941 0.66 4.221 0.237 0.942-0.311 1.754-0.94 2.198-1.826 0.171-0.348 0.28-0.721 0.325-1.104 0.088-0.703 0.081-1.441 0.073-2.166-0.003-0.264-0.005-0.526-0.003-0.784l0.014-5.867c-0.234 0-0.468 0.001-0.702 0.002-0.548 0.002-1.096 0.005-1.644-0.002l-0.001 0.768c-0.86-0.7-1.724-1.052-2.858-0.967-0.010 0.001-0.020 0.002-0.030 0.003zM29.821 5.356c0.456-0.038 0.934 0.041 1.327 0.28 0.449 0.273 0.728 0.714 0.851 1.213 0.176 0.717 0.164 1.701-0.244 2.339-0.325 0.508-0.792 0.698-1.362 0.816-0.504 0.055-1.023-0.009-1.451-0.298-0.503-0.34-0.776-0.899-0.877-1.479-0.122-0.702-0.039-1.524 0.397-2.112 0.338-0.456 0.807-0.678 1.36-0.759z"></path>
<path d="M45.097 20.338c-0.748-0.609-1.682-0.836-2.637-0.813-1.117 0.085-1.792 0.415-2.529 1.239l-0.003-1.047-2.378 0.001 0.001 11.89 2.419-0.002-0.003-1.753 0.003-2.219c0.876 0.719 1.813 1.086 2.967 0.986 1.016-0.087 1.902-0.542 2.558-1.312 0.917-1.077 1.187-2.574 1.053-3.942-0.111-1.132-0.54-2.285-1.451-3.027zM41.812 21.484c0.481-0.050 0.998 0.060 1.393 0.34 0.543 0.383 0.8 1.013 0.889 1.645 0.115 0.823 0.032 1.789-0.509 2.461-0.37 0.46-0.818 0.653-1.392 0.73-0.501 0.048-1.048-0.065-1.459-0.359-0.468-0.334-0.715-0.844-0.804-1.395-0.136-0.834-0.112-1.968 0.424-2.668 0.371-0.484 0.867-0.683 1.458-0.754z"></path>
<path d="M36.185 23.713c-0.198-2.528-2.434-4.42-4.998-4.23-2.57 0.191-4.495 2.402-4.297 4.936s2.444 4.428 5.014 4.228c2.564-0.199 4.48-2.407 4.282-4.935zM31.332 21.397c0.445-0.051 0.94 0.059 1.323 0.286 0.523 0.31 0.843 0.835 0.981 1.411 0.2 0.834 0.164 1.922-0.317 2.663-0.348 0.536-0.824 0.791-1.438 0.918-0.559 0.022-1.056-0.021-1.532-0.347-0.531-0.363-0.818-0.958-0.924-1.571-0.143-0.827-0.077-1.837 0.44-2.534 0.369-0.497 0.865-0.733 1.467-0.825z"></path>
<path d="M9.926 16.538c0.18-0.024 0.375-0.021 0.557-0.027 1.324-0.042 2.745 0.183 3.74 1.118 0.728 0.684 0.942 1.503 0.962 2.465l-2.397 0.009c-0.028-0.473-0.1-0.851-0.474-1.189-0.5-0.451-1.25-0.558-1.904-0.525-0.514 0.025-1.050 0.165-1.397 0.564-0.253 0.291-0.336 0.669-0.293 1.044 0.041 0.361 0.227 0.65 0.53 0.853 0.475 0.318 1.083 0.438 1.634 0.56 1.213 0.268 2.729 0.481 3.702 1.299 0.597 0.502 0.875 1.166 0.932 1.927 0.069 0.93-0.183 1.801-0.813 2.506-0.876 0.979-2.182 1.377-3.466 1.46-1.418 0.097-2.985-0.181-4.093-1.114-0.813-0.684-1.158-1.559-1.24-2.589l2.442-0.004c0.111 0.511 0.3 0.937 0.728 1.267 0.589 0.453 1.415 0.544 2.137 0.465 0.564-0.062 1.156-0.279 1.508-0.739 0.219-0.286 0.297-0.64 0.248-0.994-0.051-0.364-0.259-0.66-0.569-0.86-0.349-0.226-0.779-0.337-1.178-0.442-1.314-0.344-2.889-0.457-3.984-1.311-0.592-0.462-0.938-1.091-1.024-1.83-0.107-0.91 0.072-1.763 0.659-2.488 0.735-0.908 1.924-1.296 3.054-1.425z"></path>
<path d="M43.035 4.099c-0.86-0.553-1.995-0.651-2.994-0.613-1.081 0.071-2.344 0.316-3.089 1.169-0.399 0.457-0.548 1.006-0.574 1.595l2.234 0.009c0.243-0.481 0.54-0.818 1.079-0.986 0.489-0.152 1.127-0.153 1.582 0.094 0.263 0.143 0.473 0.387 0.558 0.673 0.047 0.156 0.060 0.325 0.074 0.488 0.002 0.026 0.004 0.052 0.007 0.078-0.153 0.168-0.288 0.284-0.501 0.372-0.503 0.208-1.106 0.247-1.68 0.284-0.2 0.013-0.396 0.026-0.583 0.045-1.68 0.175-3.245 0.787-3.121 2.746 0.025 0.395 0.129 0.736 0.301 1.091 0.438 0.689 1.028 1.119 1.837 1.296 0.98 0.215 2.165 0.114 3.025-0.425 0.297-0.186 0.546-0.418 0.785-0.671 0.049 0.34 0.117 0.667 0.203 1l2.249-0.004c-0.248-1.17-0.229-2.385-0.211-3.586 0.005-0.324 0.010-0.647 0.010-0.969-0-0.111 0.001-0.224 0.002-0.338 0.005-0.713 0.011-1.484-0.219-2.144-0.177-0.506-0.521-0.913-0.972-1.203zM41.837 8.253l0.068 0.036c0.097 0.499-0.029 1.158-0.289 1.586-0.285 0.47-0.747 0.825-1.29 0.952-0.497 0.117-0.937 0.053-1.368-0.215-0.179-0.159-0.322-0.325-0.398-0.555-0.087-0.266-0.072-0.586 0.064-0.834 0.302-0.55 1.384-0.693 2.281-0.812 0.363-0.048 0.695-0.092 0.933-0.157z"></path>
<path d="M17.013 16.44l2.406 0 0.002 4.4c0.109-0.14 0.218-0.28 0.342-0.408 0.61-0.627 1.445-0.906 2.313-0.922 0.9-0.016 1.841 0.213 2.497 0.853 0.415 0.405 0.687 0.937 0.813 1.496 0.18 0.795 0.089 1.701 0.089 2.516l0.001 4.006-2.404 0.001c-0.020-1.073-0.002-2.15-0.001-3.223-0.002-0.867 0.217-2.459-0.399-3.144-0.281-0.313-0.678-0.443-1.092-0.464-0.56-0.029-1.186 0.042-1.609 0.44-0.262 0.247-0.418 0.582-0.491 0.928-0.147 0.698-0.066 1.505-0.063 2.216l0.002 3.245-2.407 0.001c-0.026-1.351-0.002-2.708-0.002-4.060l0.001-7.883z"></path>
<path d="M51.228 3.484c0.134-0.010 0.268-0.016 0.402-0.016 0.865-0.005 1.661 0.245 2.283 0.856 0.402 0.4 0.681 0.902 0.809 1.45 0.195 0.822 0.091 1.778 0.091 2.623l0.005 3.944h-2.387l0.003-3.58c0-0.647 0.050-1.349-0.038-1.989-0.038-0.273-0.103-0.543-0.269-0.77-0.237-0.324-0.636-0.519-1.034-0.563-0.651-0.072-1.22 0.028-1.748 0.42-0.262 0.291-0.381 0.539-0.457 0.921-0.125 0.626-0.054 1.352-0.053 1.988l0.006 3.572-2.46 0.001 0.004-8.663 2.369 0.001c0.001 0.379 0.005 0.758 0.011 1.136 0.058-0.076 0.117-0.15 0.177-0.224 0.592-0.727 1.369-1.010 2.285-1.108z"></path>
<path d="M65.221 3.485c0.991-0.060 1.982 0.104 2.84 0.615 1 0.596 1.529 1.467 1.806 2.564-0.795-0.009-1.591-0.010-2.386-0.002-0.185-0.43-0.447-0.802-0.845-1.066-0.413-0.274-0.929-0.388-1.418-0.281-0.564 0.123-1.032 0.459-1.34 0.94-0.487 0.763-0.535 1.888-0.315 2.743 0.154 0.603 0.497 1.173 1.058 1.487 0.46 0.257 1.059 0.315 1.564 0.162 0.659-0.2 1.026-0.726 1.32-1.302l2.316-0.002c-0.165 0.645-0.389 1.229-0.819 1.75-0.72 0.872-1.778 1.336-2.898 1.451-1.236 0.126-2.479-0.156-3.451-0.942-0.954-0.772-1.487-1.899-1.593-3.102-0.111-1.259 0.156-2.534 0.997-3.518 0.814-0.951 1.932-1.388 3.164-1.497z"></path>
<path d="M24.032 3.528c0.223-0.014 0.445 0.012 0.666 0.031l-0.001 2.214-0.357-0.003c-0.791-0.002-1.689 0.049-2.275 0.65-0.268 0.275-0.42 0.617-0.502 0.986-0.145 0.65-0.072 1.396-0.069 2.062l0.005 2.874c-0.708 0.002-1.685 0.086-2.369-0.019-0.070-0.098-0.050-0.194-0.054-0.312l0-8.329 2.375-0.001c0.011 0.402 0.026 0.803 0.044 1.205 0.093-0.149 0.192-0.29 0.307-0.424 0.555-0.649 1.408-0.863 2.229-0.933z"></path>
<path d="M57.036 3.68l2.449 0.002-0.002 5.737c0 0.968 0.055 1.959-0.011 2.923l-2.443 0.001c0.040-1.124 0.017-2.255 0.017-3.38l-0.010-5.284z"></path>
<path d="M56.975 0.312l2.714-0.002c-0.006 0.668-0.005 1.336 0.002 2.004l-2.716 0.001v-2.003z"></path>
</symbol>
<symbol id="icon-instagram" viewBox="0 0 32 32">
<path d="M16 2.881c4.275 0 4.781 0.019 6.462 0.094 1.563 0.069 2.406 0.331 2.969 0.55 0.744 0.288 1.281 0.638 1.837 1.194 0.563 0.563 0.906 1.094 1.2 1.838 0.219 0.563 0.481 1.412 0.55 2.969 0.075 1.688 0.094 2.194 0.094 6.463s-0.019 4.781-0.094 6.463c-0.069 1.563-0.331 2.406-0.55 2.969-0.288 0.744-0.637 1.281-1.194 1.837-0.563 0.563-1.094 0.906-1.837 1.2-0.563 0.219-1.413 0.481-2.969 0.55-1.688 0.075-2.194 0.094-6.463 0.094s-4.781-0.019-6.463-0.094c-1.563-0.069-2.406-0.331-2.969-0.55-0.744-0.288-1.281-0.637-1.838-1.194-0.563-0.563-0.906-1.094-1.2-1.837-0.219-0.563-0.481-1.413-0.55-2.969-0.075-1.688-0.094-2.194-0.094-6.463s0.019-4.781 0.094-6.463c0.069-1.563 0.331-2.406 0.55-2.969 0.288-0.744 0.638-1.281 1.194-1.838 0.563-0.563 1.094-0.906 1.838-1.2 0.563-0.219 1.412-0.481 2.969-0.55 1.681-0.075 2.188-0.094 6.463-0.094zM16 0c-4.344 0-4.887 0.019-6.594 0.094-1.7 0.075-2.869 0.35-3.881 0.744-1.056 0.412-1.95 0.956-2.837 1.85-0.894 0.888-1.438 1.781-1.85 2.831-0.394 1.019-0.669 2.181-0.744 3.881-0.075 1.713-0.094 2.256-0.094 6.6s0.019 4.887 0.094 6.594c0.075 1.7 0.35 2.869 0.744 3.881 0.413 1.056 0.956 1.95 1.85 2.837 0.887 0.887 1.781 1.438 2.831 1.844 1.019 0.394 2.181 0.669 3.881 0.744 1.706 0.075 2.25 0.094 6.594 0.094s4.888-0.019 6.594-0.094c1.7-0.075 2.869-0.35 3.881-0.744 1.050-0.406 1.944-0.956 2.831-1.844s1.438-1.781 1.844-2.831c0.394-1.019 0.669-2.181 0.744-3.881 0.075-1.706 0.094-2.25 0.094-6.594s-0.019-4.887-0.094-6.594c-0.075-1.7-0.35-2.869-0.744-3.881-0.394-1.063-0.938-1.956-1.831-2.844-0.887-0.887-1.781-1.438-2.831-1.844-1.019-0.394-2.181-0.669-3.881-0.744-1.712-0.081-2.256-0.1-6.6-0.1v0z"></path>
<path d="M16 7.781c-4.537 0-8.219 3.681-8.219 8.219s3.681 8.219 8.219 8.219 8.219-3.681 8.219-8.219c0-4.537-3.681-8.219-8.219-8.219zM16 21.331c-2.944 0-5.331-2.387-5.331-5.331s2.387-5.331 5.331-5.331c2.944 0 5.331 2.387 5.331 5.331s-2.387 5.331-5.331 5.331z"></path>
<path d="M26.462 7.456c0 1.060-0.859 1.919-1.919 1.919s-1.919-0.859-1.919-1.919c0-1.060 0.859-1.919 1.919-1.919s1.919 0.859 1.919 1.919z"></path>
</symbol>
<symbol id="icon-linkedin" viewBox="0 0 32 32">
<path d="M29 0h-26c-1.65 0-3 1.35-3 3v26c0 1.65 1.35 3 3 3h26c1.65 0 3-1.35 3-3v-26c0-1.65-1.35-3-3-3zM12 26h-4v-14h4v14zM10 10c-1.106 0-2-0.894-2-2s0.894-2 2-2c1.106 0 2 0.894 2 2s-0.894 2-2 2zM26 26h-4v-8c0-1.106-0.894-2-2-2s-2 0.894-2 2v8h-4v-14h4v2.481c0.825-1.131 2.087-2.481 3.5-2.481 2.488 0 4.5 2.238 4.5 5v9z"></path>
</symbol>
</defs>
</svg>
